<?xml version="1.0" encoding="UTF-8"?><svg id="Layer_1" xmlns="http://www.w3.org/2000/svg" viewBox="0 0 32 32"><defs><style>.cls-1{fill:#fff;stroke-width:0px;}</style></defs><path class="cls-1" d="M16,0C7.16,0,0,7.16,0,16s7.16,16,16,16,16-7.16,16-16S24.84,0,16,0ZM24.58,10.66l-.65,8.45c-.08,1.05-.96,1.85-1.99,1.85-.05,0-.1,0-.16,0-1.1-.08-1.93-1.05-1.84-2.15l.28-3.69-10.53,8.92c-.38.32-.83.47-1.29.47-.57,0-1.13-.24-1.53-.71-.71-.84-.61-2.1.23-2.82l10.47-8.87-3.61-.28c-1.1-.08-1.93-1.05-1.84-2.15s1.05-1.93,2.15-1.84l8.46.65s0,0,0,0c.13.01.26.03.39.07.06.02.11.04.17.07.07.03.13.05.19.08.08.04.15.09.22.14.03.02.07.04.11.07.1.08.2.18.29.28,0,0,0,0,0,0,0,0,.01.02.02.03.08.09.14.19.2.29.03.04.04.09.06.14.03.07.07.14.09.22.02.06.03.12.04.19.01.06.03.13.04.19.01.1,0,.19,0,.29,0,.03,0,.06,0,.1h0s0,.01,0,.01Z"/></svg>